<?xml version="1.0" encoding="utf-8"?>
<!-- Generator: Adobe Illustrator 25.2.3, SVG Export Plug-In . SVG Version: 6.00 Build 0)  -->
<svg version="1.1" id="Layer_1" xmlns="http://www.w3.org/2000/svg" xmlns:xlink="http://www.w3.org/1999/xlink" x="0px" y="0px"
	 viewBox="0 0 111.8 22.5" style="enable-background:new 0 0 111.8 22.5;" xml:space="preserve">
<style type="text/css">
	.st0{fill:#67308F;}
</style>
<path class="st0" d="M0,0.9h16v4.2H4.6v4.3h10v4.2h-10V18h11.5v4.2H-0.1L0,0.9z"/>
<path class="st0" d="M18.6,20l2-3c1.5,1.2,3.3,1.8,5.1,1.9c1.3,0,2-0.5,2-1.2v-0.1c0-1-1.6-1.3-3.4-1.9c-2.3-0.7-4.9-1.7-4.9-4.9
	v-0.1c0-3.3,2.7-5.2,6-5.2c2.2,0,4.3,0.7,6.1,1.9l-1.8,3.2c-1.3-0.9-2.8-1.4-4.4-1.5c-1.1,0-1.7,0.5-1.7,1.1v0.1
	c0,0.9,1.5,1.3,3.3,2c2.3,0.8,4.9,1.9,4.9,4.8v0.1c0,3.6-2.7,5.3-6.2,5.3C23.1,22.5,20.6,21.6,18.6,20z"/>
<path class="st0" d="M35.6,17.6V9.9h-2v-4h2V1.7h4.6v4.2H44v4h-3.8v7c0,1.1,0.5,1.6,1.5,1.6c0.8,0,1.6-0.2,2.3-0.6v3.7
	c-1.1,0.7-2.4,1-3.6,0.9C37.5,22.5,35.6,21.3,35.6,17.6z"/>
<path class="st0" d="M47.5,5.9h4.7v3.3c0.9-2.2,2.5-3.7,5.2-3.6v4.8h-0.2c-3.1,0-5,1.9-5,5.8v6h-4.6L47.5,5.9z"/>
<path class="st0" d="M58.4,17.5L58.4,17.5c0-3.6,2.7-5.3,6.6-5.3c1.4,0,2.7,0.2,4,0.7v-0.3c0-1.9-1.2-3-3.5-3
	c-1.5,0-3.1,0.3-4.5,0.9L59.8,7c2-0.9,4.1-1.4,6.3-1.3c2.5,0,4.3,0.7,5.5,1.8c1.3,1.4,1.9,3.3,1.8,5.2v9.5H69v-1.8
	c-1.2,1.4-3.1,2.2-4.9,2.1C61,22.5,58.4,20.7,58.4,17.5z M69,16.4v-0.8c-0.9-0.4-1.9-0.6-3-0.6c-2,0-3.2,0.8-3.2,2.2v0.1
	c0,1.2,1,2,2.5,2C67.6,19.3,69,18.1,69,16.4z"/>
<path class="st0" d="M76.4,17.5L76.4,17.5c0-3.6,2.7-5.3,6.6-5.3c1.4,0,2.7,0.2,4,0.7v-0.3c0-1.9-1.2-3-3.5-3
	c-1.5,0-3.1,0.3-4.5,0.9L77.8,7c2-0.9,4.1-1.4,6.3-1.3c2.5,0,4.3,0.7,5.5,1.8c1.3,1.4,1.9,3.3,1.8,5.2v9.5h-4.5v-1.8
	c-1.3,1.4-3.1,2.2-4.9,2.1C78.9,22.5,76.4,20.7,76.4,17.5z M87,16.4v-0.8c-0.9-0.4-1.9-0.6-3-0.6c-2,0-3.2,0.8-3.2,2.2v0.1
	c0,1.2,1,2,2.5,2C85.6,19.3,87,18.1,87,16.4z"/>
<path class="st0" d="M94.7,14.1L94.7,14.1c0-5.5,3.5-8.5,7.4-8.5c2,0,3.9,0.9,5.1,2.4V0h4.6v22.2h-4.6v-2.4c-1.1,1.7-3,2.7-5.1,2.6
	C98.3,22.5,94.7,19.5,94.7,14.1z M107.2,14.1L107.2,14.1c0-2.8-1.8-4.6-4-4.6s-4,1.8-4,4.5v0.1c0,2.7,1.8,4.5,4,4.5
	S107.2,16.8,107.2,14.1L107.2,14.1z"/>
</svg>
